<?xml version="1.0" standalone="no"?>
<!DOCTYPE svg PUBLIC "-//W3C//DTD SVG 1.1//EN" "http://www.w3.org/Graphics/SVG/1.1/DTD/svg11.dtd" >
<svg xmlns="http://www.w3.org/2000/svg">
<metadata>
This is a custom SVG webfont generated by Font Squirrel.
Copyright   : c Copyright 20032004 The Font Bureau Inc Designed by David Berlow All rights reserved
Foundry     : The Font Bureau Inc
</metadata>
<defs>
<font id="webfonthcrGnPir" horiz-adv-x="743" >
<font-face units-per-em="2048" ascent="1638" descent="-410" />
<missing-glyph horiz-adv-x="237" />
<glyph unicode=" "  horiz-adv-x="237" />
<glyph unicode="&#x09;" horiz-adv-x="237" />
<glyph unicode="&#xa0;" horiz-adv-x="237" />
<glyph unicode="!" horiz-adv-x="374" d="M49 1636h277l-29 -1200h-221zM57 0v352h260v-352h-260z" />
<glyph unicode="&#x22;" horiz-adv-x="591" d="M16 1638h244l-8 -614h-227zM322 1638h253l-10 -614h-235z" />
<glyph unicode="#" horiz-adv-x="706" d="M6 522l19 201h114l13 145h-123l18 201h121l45 508h166l-45 -508h82l43 508h166l-45 -508h116l-18 -201h-115l-12 -145h123l-19 -201h-120l-48 -534h-163l45 534h-80l-47 -534h-164l45 534h-117zM305 723h80l14 145h-82z" />
<glyph unicode="$" horiz-adv-x="686" d="M14 295v168h265v-133q0 -90 57 -90q61 0 61 118q0 127 -27.5 191.5t-142.5 198.5q-135 158 -173 251t-38 269q0 145 68 241.5t190 118.5v39h148v-39q233 -39 248 -325q2 -47 2 -160h-264v139q0 100 -60 100q-35 0 -49 -24.5t-14 -81.5q0 -96 33.5 -167t138.5 -198 q129 -147 172 -245.5t43 -284.5q0 -322 -250 -371v-106h-148v104q-125 16 -192.5 90t-67.5 197z" />
<glyph unicode="%" horiz-adv-x="1058" d="M33 1112v262q0 125 61.5 205t177.5 80q125 0 181.5 -81t56.5 -204v-262q0 -135 -61.5 -210t-182.5 -75q-233 0 -233 285zM145 0l619 1595h133l-618 -1595h-134zM219 1126q0 -102 53.5 -102t53.5 100v250q0 82 -53.5 82t-53.5 -82v-248zM547 268v262q0 125 61.5 205 t177.5 80q125 0 181.5 -81t56.5 -204v-262q0 -135 -61.5 -209.5t-182.5 -74.5q-233 -1 -233 284zM733 281q0 -100 53 -101q29 0 41.5 22.5t12.5 78.5v249q0 82 -53.5 82t-53.5 -82v-249z" />
<glyph unicode="&#x26;" horiz-adv-x="888" d="M16 293q-4 92 0 178q4 170 158 377q-100 238 -100 371v145q6 121 75.5 201t215.5 80q123 0 191.5 -78t72.5 -199v-113q-2 -82 -33 -169t-61.5 -140t-88.5 -141q47 -127 113 -285q14 111 14 238h230q0 -305 -74 -490l158 -268h-273q-6 18 -20 48l-19 40q-88 -98 -231 -98 q-141 0 -231.5 75.5t-96.5 227.5zM258 395q0 -98 22.5 -134t71.5 -40q63 0 94 47l-145 357q-43 -111 -43 -230zM307 1217q0 -78 31 -189q68 133 70 234v71q0 63 -48 64q-53 0 -53 -74v-106z" />
<glyph unicode="'" horiz-adv-x="309" d="M29 1638h252l-11 -655h-233z" />
<glyph unicode="(" horiz-adv-x="428" d="M23 750q0 424 118 888h283q-121 -489 -121 -893q0 -225 36 -471.5t85 -416.5h-283q-49 158 -83.5 404.5t-34.5 488.5z" />
<glyph unicode=")" horiz-adv-x="428" d="M8 -143q49 170 85 416.5t36 471.5q0 403 -121 893h283q119 -465 119 -888q0 -242 -35 -489t-84 -404h-283z" />
<glyph unicode="*" horiz-adv-x="768" d="M63 1350l52 155l192 -78v224h156v-224l188 78l54 -155l-199 -82l137 -166l-125 -101l-135 164l-135 -164l-125 101l137 164z" />
<glyph unicode="+" horiz-adv-x="602" d="M10 709v211h180v219h224v-219h178v-211h-180v-222h-222v222h-180z" />
<glyph unicode="," horiz-adv-x="376" d="M33 -147l78 137v10h-64v360h281v-368l-174 -213z" />
<glyph unicode="-" horiz-adv-x="518" d="M12 676v280h494v-280h-494z" />
<glyph unicode="." horiz-adv-x="376" d="M45 0v360h285v-360h-285z" />
<glyph unicode="/" horiz-adv-x="350" d="M-31 -330l213 1968h166l-215 -1968h-164z" />
<glyph unicode="0" horiz-adv-x="710" d="M27 821q0 371 18 553q18 127 86 203t225 76q143 0 218 -78t92 -201q18 -205 18 -553q0 -313 -22 -528q-33 -307 -306 -307q-145 0 -216.5 78.5t-88.5 228.5q-24 186 -24 528zM299 819q0 -291 6 -506q4 -92 51 -92q51 0 52 92q2 68 2 514q0 102 -1 278.5t-1 201.5 q0 96 -54 96q-29 0 -39 -23.5t-12 -74.5q0 -35 -2 -229t-2 -257z" />
<glyph unicode="1" horiz-adv-x="497" d="M8 1255v228q63 2 110.5 19.5t74 46t38 46t23.5 43.5h207v-1638h-271v1255h-182z" />
<glyph unicode="2" horiz-adv-x="702" d="M27 0v246q0 80 57 196.5t127 222t129 247t61 262.5v135q0 43 -8 65.5t-18 26.5t-27 4q-53 0 -53 -84v-217h-268v252q0 119 90 208t248 89q299 0 319 -283q2 -23 1 -111t-3 -116q-8 -123 -62.5 -260.5t-116 -237.5t-115.5 -208.5t-62 -178.5h344v-258h-643z" />
<glyph unicode="3" horiz-adv-x="692" d="M12 520h267v-239q0 -63 51 -64q59 0 59 90v279q0 72 -25.5 100.5t-97.5 34.5l-102 2v254l117 2q55 8 78.5 39t23.5 94v219q0 74 -47 74t-47 -78l-2 -192h-252q2 201 4 247q4 113 84 192t217 79q154 0 230.5 -81t76.5 -212v-186q0 -119 -60.5 -202t-185.5 -95 q125 -6 194 -72t77 -176q8 -150 -2 -344q-6 -139 -93.5 -219t-236.5 -80q-152 0 -237 71.5t-87 198.5z" />
<glyph unicode="4" horiz-adv-x="749" d="M10 334v258l320 1046h307v-1063h106v-241h-106v-334h-262v334h-365zM242 575h133v502z" />
<glyph unicode="5" horiz-adv-x="694" d="M18 270v203h269q0 -6 1 -80t1 -86q0 -94 51 -94q49 0 49 90q0 25 -1 219.5t-1 247.5q0 74 -43 74q-53 0 -55 -121h-258v915h612v-260h-362v-346q35 78 155 78q102 0 166 -60.5t70 -160.5q4 -90 5 -305t-3 -326q-6 -115 -83 -193.5t-245 -78.5q-160 0 -242 75.5t-86 208.5 z" />
<glyph unicode="6" horiz-adv-x="714" d="M29 821q0 377 20 522q14 143 91 226.5t222 83.5q270 0 302 -271q4 -35 4 -211h-256v111q0 66 -11.5 93.5t-44.5 27.5q-31 0 -42 -26.5t-13 -96.5q0 -37 -1 -182.5t-1 -153.5q47 72 158 72q80 0 132 -41t70 -107q20 -100 17.5 -344.5t-25.5 -322.5q-29 -100 -94 -157.5 t-195 -57.5q-225 0 -288 204q-45 142 -45 631zM297 698q0 -270 6 -399q2 -80 51 -80q47 0 49 86q0 23 1.5 205t1.5 205q0 61 -46 61q-55 0 -63 -78z" />
<glyph unicode="7" horiz-adv-x="612" d="M6 1378v260h602v-227l-254 -1411h-293l263 1378h-318z" />
<glyph unicode="8" horiz-adv-x="731" d="M20 291q-2 72 5 405q4 76 50 128.5t107 70.5q-135 43 -137 207q0 10 -1 140t-1 142q8 268 319 269q170 0 247 -77t77 -187v-275q-2 -172 -145 -219q74 -16 119 -74.5t49 -138.5q8 -180 0 -391q-4 -145 -91.5 -225t-255.5 -80q-182 0 -259 79t-83 226zM307 305 q0 -80 55.5 -80t55.5 78v379q0 76 -55.5 76t-55.5 -78v-375zM315 1063q0 -66 47 -66q49 0 50 64v282q0 72 -52 72q-45 0 -45 -72v-280z" />
<glyph unicode="9" horiz-adv-x="702" d="M28 1103.5q3 239.5 27 338.5q25 96 103 153.5t198 57.5q111 0 176.5 -45t98.5 -140q47 -158 47 -620q0 -416 -23 -574q-33 -291 -315 -290q-127 0 -204 68.5t-91 197.5q-8 68 -8 201h258v-132q0 -96 55 -96q53 0 53 84v365q-47 -63 -147 -64q-170 0 -209 152 q-22 104 -19 343.5zM299 895q0 -61 49 -61q20 0 36.5 18t21.5 41q0 391 -3 436q0 72 -53 72q-51 0 -51 -78v-428z" />
<glyph unicode=":" horiz-adv-x="354" d="M51 0v348h262v-348h-262zM51 748v348h262v-348h-262z" />
<glyph unicode=";" horiz-adv-x="354" d="M37 -150l72 140v10h-52v348h256v-352l-157 -219zM57 748v348h256v-348h-256z" />
<glyph unicode="&#x3c;" horiz-adv-x="632" d="M14 649v254l590 238v-219l-393 -146l393 -153v-213z" />
<glyph unicode="=" horiz-adv-x="606" d="M20 555v201h566v-201h-566zM20 858v201h566v-201h-566z" />
<glyph unicode="&#x3e;" horiz-adv-x="632" d="M25 410v213l395 153l-395 146v219l589 -238v-254z" />
<glyph unicode="?" horiz-adv-x="659" d="M23 1190v213q0 113 87 180.5t220 67.5q135 0 213 -63.5t86 -184.5q4 -102 0 -203q-2 -78 -41 -167t-83 -159.5t-79 -188.5t-29 -249h-213q-8 158 17.5 283t61.5 190.5t67.5 147.5t31.5 162v127q0 86 -47 86q-51 0 -51 -80v-162h-241zM162 0v352h266v-352h-266z" />
<glyph unicode="@" horiz-adv-x="1304" d="M33 803q14 332 211.5 541.5t488.5 209.5q274 0 415.5 -195.5t123.5 -488.5q-12 -211 -94 -339t-217 -128q-158 0 -177 144q-72 -143 -241 -144q-129 0 -191.5 86t-50.5 252q12 195 103.5 326t240.5 131q135 0 170 -111l19 84l167 3q-2 -23 -77 -453q-23 -133 69 -133 q123 0 146 286q16 266 -91.5 424t-320.5 158q-227 0 -399 -177t-187 -476q-23 -346 111.5 -512t372.5 -166q190 0 346 121l51 -92q-180 -133 -401 -134q-285 0 -446.5 193t-141.5 590zM507 643q15 -49 77 -49q106 0 141 154q23 98 29 147q4 37 -18.5 75t-69.5 38 q-57 0 -101.5 -60.5t-56.5 -171.5q-16 -84 -1 -133z" />
<glyph unicode="A" d="M0 0l178 1638h414l151 -1638h-284q-18 287 -23 412h-129l-26 -412h-281zM317 627h109q0 4 -16.5 239.5t-16.5 241.5l-18 338q-12 -225 -17 -338q0 -6 -20.5 -241.5t-20.5 -239.5z" />
<glyph unicode="B" horiz-adv-x="784" d="M41 0v1638h410q195 0 247 -122q43 -74 43 -267q0 -223 -36 -288q-35 -100 -134 -117q113 -14 146 -107q41 -63 41 -288q0 -246 -49 -322q-55 -127 -256 -127h-412zM324 231h73q49 0 52 62q2 33 2 188q0 109 -5 174q-2 59 -49 60h-73v-484zM324 932h73q16 0 30.5 14.5 t16.5 44.5q2 29 2 185q0 104 -4 165q-4 63 -61 64h-57v-473z" />
<glyph unicode="C" d="M29 827q0 285 8 506q23 315 364 316q305 0 318 -344q2 -57 2 -263h-272v261q-2 72 -56 71q-66 0 -65 -82q-2 -74 -2 -458q0 -403 4 -482q2 -55 17 -77.5t44 -22.5q59 0 60 106v230h272v-285q0 -141 -88 -230t-250 -89q-301 0 -340 266q-16 131 -16 577z" />
<glyph unicode="D" horiz-adv-x="739" d="M41 0v1638h326q223 0 286 -141q61 -102 62 -641q0 -303 -11.5 -473t-50.5 -240q-72 -143 -245 -143h-367zM322 217h63q53 0 55 80q4 135 4 561q0 276 -6 442q-2 98 -67 99h-49v-1182z" />
<glyph unicode="E" horiz-adv-x="632" d="M41 0v1638h584v-274h-299v-410h272v-256h-272v-430h301v-268h-586z" />
<glyph unicode="F" horiz-adv-x="634" d="M41 0v1638h592v-274h-307v-410h276v-266h-276v-688h-285z" />
<glyph unicode="G" horiz-adv-x="751" d="M29 815q0 455 12 555q12 115 94 198t248 83t242.5 -80t89.5 -191l4 -301h-279v228q0 88 -55 88t-55 -97q-2 -111 -2 -481q0 -354 4 -485q0 -57 14 -82t47 -25q61 0 62 99v348h-84v250h356v-555l4 -367h-205l-12 53q-49 -66 -174 -65q-135 0 -215 71.5t-86 210.5 q-10 133 -10 545z" />
<glyph unicode="H" horiz-adv-x="763" d="M41 0v1638h283v-690h116v690h283v-1638h-283v696h-116v-696h-283z" />
<glyph unicode="I" horiz-adv-x="376" d="M41 0v1638h297v-1638h-297z" />
<glyph unicode="J" horiz-adv-x="493" d="M12 6v266q23 -1 45 -1t43 1q74 6 74 90v1276h283v-1327q0 -172 -78 -242.5t-256 -70.5q-43 0 -111 8z" />
<glyph unicode="K" horiz-adv-x="808" d="M41 0v1638h283v-643l198 643h285l-232 -710l230 -928h-309l-142 616l-30 -84v-532h-283z" />
<glyph unicode="L" horiz-adv-x="663" d="M41 0v1638h293v-1370h321v-268h-614z" />
<glyph unicode="M" horiz-adv-x="1093" d="M41 0v1638h377l133 -993l139 993h365v-1638h-258l2 991l-129 -991h-240l-133 989l2 -989h-258z" />
<glyph unicode="N" horiz-adv-x="753" d="M41 0v1638h250l160 -723v723h262v-1638h-256l-154 735v-735h-262z" />
<glyph unicode="O" horiz-adv-x="759" d="M29 823q0 418 4 484q10 342 346 342q326 0 348 -324q4 -63 4 -491q0 -416 -4 -512q-8 -168 -92 -254t-256 -86q-334 0 -346 321q-4 114 -4 520zM319 815q0 -422 3 -489q4 -45 16 -66.5t45 -21.5q53 0 59 88q4 127 4 493q0 406 -2 467q-2 59 -15 83t-46 24 q-35 0 -46 -23.5t-15 -85.5q-3 -61 -3 -469z" />
<glyph unicode="P" horiz-adv-x="753" d="M41 0v1638h381q156 0 235 -106q76 -104 76 -395q0 -297 -84 -396q-76 -90 -231 -102l-90 -2v-637h-287zM328 881h28q74 0 82 73q8 82 8 168q0 127 -18 191q-16 55 -63 55h-37v-487z" />
<glyph unicode="Q" horiz-adv-x="759" d="M29 823q0 90 2 286t2 198q0 152 84 248t262 96q326 0 348 -324q4 -53 4 -493q0 -315 -4 -508q-2 -109 -37 -178.5t-84 -94.5q4 -4 41 -45q43 -39 60 -47l-152 -209q-86 72 -141 125q-98 94 -119 125q-41 2 -82 25q-68 18 -123 89.5t-57 192.5q0 4 -2 214t-2 300zM317 793 q0 -432 2 -500q6 -90 64 -90q55 0 61 90q4 131 5 512q0 416 -5 498q0 84 -61 83q-35 0 -47 -22.5t-14 -69.5q-5 -77 -5 -501z" />
<glyph unicode="R" horiz-adv-x="761" d="M41 0v1638h381q82 0 148.5 -35.5t97.5 -101.5q55 -121 55 -332q0 -176 -35 -276q-31 -88 -84 -115l150 -778h-285l-123 694h-31v-694h-274zM319 938q41 0 56 2q35 6 45 45q14 41 14 154q0 102 -6 157q-8 78 -59 78h-50v-436z" />
<glyph unicode="S" horiz-adv-x="688" d="M6 1280q0 170 93.5 271.5t244.5 101.5q158 0 236.5 -91.5t85.5 -238.5l4 -170h-267l-2 145q0 100 -57 101q-63 0 -63 -117q0 -162 108 -291q100 -119 129 -160q88 -119 122 -219t34 -252q0 -188 -87 -283t-247 -95q-152 0 -240 70.5t-88 201.5v203h264v-158 q0 -78 59.5 -78t59.5 115q0 111 -21.5 177.5t-92.5 162.5l-38 49l-44 54l-43 52q-84 102 -117 198.5t-33 250.5z" />
<glyph unicode="T" horiz-adv-x="649" d="M6 1364v274h639v-274h-178v-1364h-287v1364h-174z" />
<glyph unicode="U" horiz-adv-x="751" d="M33 322v1316h282v-1314q0 -51 13.5 -69.5t46.5 -18.5q31 0 43 18t12 68v1316h285v-1316q0 -162 -87 -249t-245 -87q-162 0 -256 84t-94 252z" />
<glyph unicode="V" horiz-adv-x="741" d="M2 1638h287l82 -1206l82 1206h284l-194 -1638h-363z" />
<glyph unicode="W" horiz-adv-x="1169" d="M0 1638h287q68 -989 67 -1194q0 205 92 1194h273q102 -991 102 -1194q0 90 15.5 388t31.5 552l15 254h284l-159 -1638h-342q-74 762 -84 975q-2 -96 -22.5 -340t-39.5 -438l-20 -197h-332z" />
<glyph unicode="X" horiz-adv-x="804" d="M4 0l246 868l-225 770h301l92 -419l90 419h283l-226 -837l234 -801h-301l-97 438l-92 -438h-305z" />
<glyph unicode="Y" horiz-adv-x="811" d="M0 1638h285q104 -565 110 -663q4 100 125 663h291l-270 -1007v-631h-289v623z" />
<glyph unicode="Z" horiz-adv-x="669" d="M8 0v244l338 1120h-309v274h620v-239l-338 -1131h347v-268h-658z" />
<glyph unicode="[" horiz-adv-x="374" d="M35 -330v1968h330v-223h-80v-1534h80v-211h-330z" />
<glyph unicode="\" horiz-adv-x="350" d="M4 1638h166l213 -1968h-164z" />
<glyph unicode="]" horiz-adv-x="374" d="M10 -119h78v1538h-78v219h330v-1968h-330v211z" />
<glyph unicode="^" horiz-adv-x="829" d="M14 1284l293 363h213l293 -363l-156 -154l-245 297l-242 -297z" />
<glyph unicode="_" horiz-adv-x="595" d="M0 -68h596v-235h-596v235z" />
<glyph unicode="`" horiz-adv-x="716" d="M123 1489h278l127 -293h-243z" />
<glyph unicode="a" horiz-adv-x="651" d="M14 184q0 174 2 209q8 115 64.5 181.5t191.5 103.5q74 18 101 22v156q0 66 -41 66q-45 0 -45 -68v-123h-240q-1 28 -1 54q0 79 9 149q10 90 84 149.5t201 59.5q283 0 283 -250q0 -55 -1 -196.5t-1 -194.5q-2 -94 -3 -314q0 -176 13 -188h-252q-4 61 -4 72 q-55 -80 -166 -80q-72 0 -130.5 41.5t-64.5 150.5zM272 362q0 -86 2 -108q4 -55 48 -55q51 0 51 75v166q0 10 -1 42t-1 40q-2 -2 -12.5 -4t-16.5 -6q-33 -18 -47 -39q-23 -29 -23 -111z" />
<glyph unicode="b" horiz-adv-x="667" d="M35 0v1638h250v-585q35 86 155 86q160 0 189 -191q14 -117 14 -366q0 -254 -8 -342q-25 -244 -207 -244q-98 0 -156 63l-32 -59h-205zM287 569q0 -276 2 -333q4 -53 47 -54q45 0 45 64v323v297q0 51 -43 52q-51 0 -51 -70v-279z" />
<glyph unicode="c" horiz-adv-x="624" d="M25 563q0 197 28 375q14 92 85 146.5t184 54.5q219 0 268 -185q14 -53 14 -288h-239v155q-2 31 -2.5 42t-4.5 27.5t-12 22t-22 5.5q-25 0 -35 -19.5t-10 -67.5v-270v-272q0 -47 9 -65.5t36 -18.5q25 0 33 18.5t8 67.5q0 8 1 78.5t1 87.5h237q0 -229 -20 -295 q-55 -174 -258 -174q-221 0 -271 174q-30 118 -30 401z" />
<glyph unicode="d" horiz-adv-x="653" d="M25 561q0 293 20 397q37 178 197 179q106 0 133 -78v579h252v-1476l8 -162h-209l-33 59q-33 -37 -63.5 -51t-85.5 -14q-145 0 -181 141q-38 123 -38 426zM276 557q0 -55 1.5 -169t1.5 -136q4 -55 45 -55q49 0 49 71q2 80 2 289v303q0 55 -49 55q-45 0 -47 -61 q-3 -66 -3 -297z" />
<glyph unicode="e" horiz-adv-x="634" d="M25 555q0 74 11 220.5t27 189.5q20 51 43 82.5t80.5 61.5t141.5 30q109 0 173 -53.5t83 -120.5q29 -82 28 -494h-336v-211q0 -66 49.5 -65.5t49.5 65.5v107h231q0 -139 -24 -211q-59 -170 -256 -170q-203 0 -252 139q-49 145 -49 430zM272 668h99q0 12 -1 100t-1 100 q0 55 -47 56q-43 0 -48 -56q0 -6 -1 -96t-1 -104z" />
<glyph unicode="f" horiz-adv-x="450" d="M6 897v229h78v260q0 258 250 259q68 0 129 -5v-210q-27 2 -64 2q-27 0 -42 -23t-15 -49v-234h102v-229h-102v-897h-258v897h-78z" />
<glyph unicode="g" horiz-adv-x="731" d="M6 -51q0 63 31 99t94 67q-125 18 -125 155q0 57 36 102.5t93 65.5q-68 45 -76 158q-2 27 -2 295q4 102 81 176t222 74q158 0 213 -76q49 66 164 65v-155h-100q23 -49 22 -135q0 -209 -10 -277q-18 -104 -90 -159.5t-182 -55.5q-70 0 -123 27q-43 -6 -43 -43q0 -31 36 -39 t165 -10q184 -2 253.5 -73t69.5 -198q0 -135 -95 -206.5t-263 -71.5q-166 0 -268.5 51t-102.5 164zM223 -4q0 -72 150 -72q141 0 141 78q0 39 -35 53.5t-123 20.5q-16 2 -43 2h-37q-4 -2 -10 -6l-9 -6q-3 -2 -7 -6.5t-7 -6.5t-6.5 -6t-5.5 -7t-4 -8t-2 -10.5t-1 -11.5 t-1 -14zM313 588q0 -63 47.5 -63.5t49.5 63.5q0 270 -2 315q-2 57 -48 58q-47 0 -47 -76v-297z" />
<glyph unicode="h" horiz-adv-x="659" d="M35 0v1638h256v-600q43 100 153 101q82 0 134.5 -56.5t52.5 -179.5v-903h-258v868q0 49 -35 50q-47 0 -47 -89v-829h-256z" />
<glyph unicode="i" horiz-adv-x="339" d="M33 1169v273h274v-273h-274zM37 68v1058h266v-1054l12 -72h-262q-16 5 -16 68z" />
<glyph unicode="j" horiz-adv-x="337" d="M-92 -168h47q82 0 82 62v1232h262v-1308q0 -102 -69.5 -159.5t-184.5 -57.5q-106 0 -137 8v223zM31 1169v273h272v-273h-272z" />
<glyph unicode="k" horiz-adv-x="686" d="M35 0v1638h256v-888l131 376h260l-158 -428l160 -698h-278l-87 416l-28 -49v-367h-256z" />
<glyph unicode="l" horiz-adv-x="317" d="M23 1638h262q4 -27 4 -59v-1501q0 -68 10 -78q-129 -1 -193.5 -1t-64.5 1q-12 8 -12 74v1474q0 76 -6 90z" />
<glyph unicode="m" horiz-adv-x="987" d="M35 0v1126h250v-88q39 102 176 103q111 0 149 -113q45 113 176 113q170 0 170 -201v-940h-251v864q0 53 -35 54q-23 0 -34 -22t-11 -48v-848h-252v866q0 51 -35 52q-23 0 -35 -24t-12 -54v-840h-256z" />
<glyph unicode="n" horiz-adv-x="661" d="M35 0v1126h250v-96q12 51 56 80t108 29q180 0 180 -217q0 -922 6 -922h-256q-6 2 -6 854q0 57 -33 57q-49 0 -49 -102v-809h-256z" />
<glyph unicode="o" horiz-adv-x="653" d="M25 565q0 193 16 340q16 98 86 166t203 68q137 0 208.5 -67.5t79.5 -176.5q10 -287 11 -330q0 -233 -11 -329q-12 -109 -85.5 -178.5t-206.5 -69.5q-141 0 -212 70.5t-79 177.5q-10 153 -10 329zM279 561q0 -49 1 -157.5t1 -131.5q0 -70 47 -69q49 0 49 71v287v287 q-2 41 -12.5 56.5t-36.5 15.5q-47 0 -47 -72q-2 -45 -2 -287z" />
<glyph unicode="p" horiz-adv-x="669" d="M35 -328v1454h246v-65q41 78 155 78q147 0 182 -156q27 -125 27 -401q0 -293 -16 -385q-33 -199 -205 -199q-82 0 -137 39v-365h-252zM287 260q0 -55 49 -55q45 0 45 65q2 51 2 305q0 236 -2 285q0 57 -43 58q-51 0 -51 -74v-269v-315z" />
<glyph unicode="q" horiz-adv-x="661" d="M25 563q0 229 18 371q37 203 209 203q90 0 129 -76v67h252v-1306l10 -150h-250l-16 23v360q-43 -61 -131 -61q-162 0 -199 178q-22 129 -22 391zM276 571q0 -39 1.5 -159.5t1.5 -145.5q0 -61 47 -61q43 0 51 71q2 31 2 299v275q0 68 -51 68q-29 0 -38 -18.5t-11 -63.5 q-3 -85 -3 -265z" />
<glyph unicode="r" horiz-adv-x="505" d="M35 0v1126h256v-120q6 57 51 95t102 38q47 0 72 -9v-241q-53 14 -110 14q-61 0 -86 -38t-25 -165v-700h-260z" />
<glyph unicode="s" horiz-adv-x="593" d="M8 354h234v-16q0 -16 1 -40t1 -40q0 -61 43 -61q29 0 39 17t10 71q0 59 -14.5 92t-55.5 61l-100 66q-86 55 -119 134t-33 202q0 135 71 218t200 83q238 0 268 -195q10 -72 10 -184h-231v104q0 57 -37 58q-45 0 -45 -82q0 -94 59 -135l125 -82q145 -96 146 -326 q0 -315 -281 -315q-268 0 -285 219q-8 76 -8 118q0 21 2 33z" />
<glyph unicode="t" horiz-adv-x="477" d="M4 897v229h72l8 203l252 6v-209h127v-229h-121v-629q0 -37 13.5 -48t43.5 -11q39 0 52 4v-209q-78 -12 -154 -12q-90 0 -153.5 56t-63.5 183v666h-76z" />
<glyph unicode="u" horiz-adv-x="659" d="M31 264v862h258v-850q0 -66 35 -65q27 0 37 22.5t10 79.5v813h256v-1001q0 -88 4 -125h-244l-8 47q-53 -53 -141 -53q-207 0 -207 270z" />
<glyph unicode="v" horiz-adv-x="681" d="M0 1126h270l76 -796l72 796h264l-172 -1126h-330z" />
<glyph unicode="w" horiz-adv-x="1034" d="M0 1126h260l74 -911l53 911h258l66 -911l61 911h260l-141 -1126h-307q-35 338 -49 492l-13 194l-14 -194q-10 -158 -47 -492h-311z" />
<glyph unicode="x" horiz-adv-x="643" d="M0 0l158 565l-150 561h264l56 -284l57 284h242l-152 -538l160 -588h-270l-58 311l-57 -311h-250z" />
<glyph unicode="y" horiz-adv-x="684" d="M0 1126h268q70 -627 76 -700q18 119 74 700h266l-291 -1454h-264l76 367z" />
<glyph unicode="z" horiz-adv-x="567" d="M12 0v227l277 670h-269v229h537v-227l-281 -670h281v-229h-545z" />
<glyph unicode="{" horiz-adv-x="522" d="M18 627v237q84 2 115 48t31 128q0 61 -23.5 170t-23.5 187q0 106 67.5 173.5t184.5 67.5h135v-217q-92 0 -124 -26.5t-28 -114.5q2 -25 22.5 -136.5t20.5 -168.5q0 -207 -170 -232q66 -8 106 -53t52 -96t12 -111q0 -74 -20.5 -232.5t-22.5 -230.5q-4 -82 28 -106.5 t124 -24.5v-221h-125q-131 0 -197.5 72t-66.5 186q0 90 22.5 262t22.5 246q-1 193 -142 193z" />
<glyph unicode="|" horiz-adv-x="460" d="M129 -410v2048h205v-2048h-205z" />
<glyph unicode="}" horiz-adv-x="522" d="M14 -111q92 0 124 25t28 106q-2 72 -22.5 231t-20.5 232q0 59 12 110.5t52 96.5t106 53q-170 25 -170 232q0 57 20.5 168.5t22.5 136.5q4 88 -28 114.5t-124 26.5v217h136q117 0 184 -67.5t67 -173.5q0 -78 -22.5 -186.5t-22.5 -170.5q0 -82 30 -128t114 -48v-237 q-139 0 -140 -193q0 -74 21.5 -246t21.5 -262q0 -115 -65.5 -186.5t-198.5 -71.5h-125v221z" />
<glyph unicode="~" horiz-adv-x="813" d="M2 739q84 223 266 224q94 0 187 -91q2 -2 12 -11t12 -11t10.5 -9t12.5 -9.5t11 -6.5t12 -6t12.5 -4t14.5 -3t15 -1q61 0 97 100l143 -118q-82 -195 -248 -195q-94 0 -186 86q-6 6 -23.5 21.5t-22.5 19.5t-18.5 12t-24 10.5t-24.5 2.5q-59 0 -94 -105z" />
<glyph unicode="&#xa1;" horiz-adv-x="374" d="M51 2l29 1200h221l27 -1200h-277zM59 1286v352h260v-352h-260z" />
<glyph unicode="&#xa2;" horiz-adv-x="665" d="M31 809q0 172 35 365q37 164 198 196v127h148v-123q172 -23 213 -182q23 -104 22 -281h-246v164q-2 53 -10 76t-33 23q-43 0 -43 -89q0 -86 -1 -164.5t-1 -111.5t1 -142.5t1 -144.5q2 -57 11.5 -76.5t31.5 -19.5q43 0 43 98v178h246q0 -223 -26 -288q-39 -152 -209 -176 v-138h-148v140q-156 25 -196 170q-37 137 -37 399z" />
<glyph unicode="&#xa3;" horiz-adv-x="671" d="M18 0v252q168 59 197 215q8 47 -10 133h-166v223h102q-106 238 -106 363v194q0 272 307 272.5t307 -278.5v-377h-243v322q0 66 -13.5 87t-46.5 24q-31 0 -43 -19.5t-12 -69.5v-178q0 -160 86 -340h262v-223h-205q16 -76 10 -129q-6 -90 -42.5 -148.5t-82.5 -78.5h322 v-244h-623z" />
<glyph unicode="&#xa4;" horiz-adv-x="751" d="M12 614v170h66v37v29h-66v170h66q4 252 14 354q18 127 86 203t225 76q143 0 218 -78t92 -201q10 -117 14 -299h-268q-2 102 -2 232q0 96 -56 96q-49 0 -53 -98q0 -14 -1 -116t-1 -169h84v-170h-86v-31v-35h86v-170h-86q4 -252 6 -301q4 -92 53 -92q53 0 54 92q0 8 1 86 t1 138h266q-6 -137 -16 -244q-33 -307 -306 -307q-145 0 -216.5 78.5t-88.5 228.5q-10 84 -18 321h-68z" />
<glyph unicode="&#xa5;" horiz-adv-x="819" d="M0 1638h285q104 -532 110 -630q2 45 33 202.5t61 292.5l31 135h291l-270 -972v-72h233v-170h-233v-66h233v-170h-233v-188h-289v188h-219v170h219v66h-219v170h219v63z" />
<glyph unicode="&#xa6;" horiz-adv-x="460" d="M129 -410v859h205v-859h-205zM129 733v905h205v-905h-205z" />
<glyph unicode="&#xa7;" horiz-adv-x="579" d="M35 778q-20 102 2 176q18 127 117 179q-82 68 -84 184q-2 14 -2 55t2 58q8 100 70.5 154t156.5 54q223 0 235 -223v-119h-170v103q0 86 -47 86q-45 0 -51 -72v-84q0 -33 2 -49t16.5 -38.5t45.5 -43.5q33 -25 75 -53q109 -72 136 -180q12 -39 12 -97.5t-12 -95.5 q-20 -131 -138 -172q143 -102 152 -242q2 -18 2 -65t-2 -66q-12 -244 -246 -243q-244 0 -262 247q-2 16 -2 127l203 -2v-108q0 -92 55 -92q59 0 59 90v96q-6 84 -79 139q-8 6 -58.5 47l-75.5 60q-94 75 -112 190zM229 809q4 -47 66 -92q23 0 41 28.5t22 69.5q12 41 0 94 q-8 59 -67 95q-20 0 -39 -27t-23 -66q-14 -41 0 -102z" />
<glyph unicode="&#xa8;" horiz-adv-x="716" d="M109 1196v248h200v-248h-200zM408 1196v248h202v-248h-202z" />
<glyph unicode="&#xa9;" horiz-adv-x="913" d="M27 922v309q0 414 430 414t430 -414v-309q0 -451 -426 -451q-434 0 -434 451zM137 958q0 -195 78 -285.5t242 -90.5q178 0 247.5 86t69.5 290v281q0 289 -317 289q-319 0 -320 -289v-281zM231 879v153v164q0 74 60.5 123t171.5 49q102 0 159.5 -56.5t57.5 -123.5v-103 h-170v74q-4 49 -43 49q-51 0 -51 -55v-117q0 -20 1 -64t1 -50q0 -57 47 -57.5t47 63.5v73h168v-120q0 -72 -58.5 -120t-160.5 -48q-109 0 -169.5 46t-60.5 120z" />
<glyph unicode="&#xaa;" horiz-adv-x="673" d="M20 731q-4 51 0 180q8 109 72 177.5t187 107.5q25 10 98 25q0 16 1 69t1 72q0 66 -43 65.5t-43 -67.5v-109h-242q-2 88 8 174q12 90 86 149.5t199 59.5q285 0 285 -250q0 -154 -4 -362v-287q0 -176 10 -188h-252q-4 61 -4 71q-53 -80 -166 -79q-72 0 -129.5 41.5 t-63.5 150.5zM23 264v234h622v-234h-622zM276 834q0 -80 46 -80q33 0 44 33.5t11 136.5v133q-61 -12 -81 -58t-20 -165z" />
<glyph unicode="&#xab;" horiz-adv-x="708" d="M23 618v201l319 365v-289l-123 -176l123 -174v-291zM362 618v201l320 365v-289l-123 -176l123 -174v-291z" />
<glyph unicode="&#xac;" horiz-adv-x="645" d="M10 10v262h277v330q-82 12 -137.5 74.5t-55.5 146.5t56.5 147.5t138.5 76.5v350h-279v231h625v-231h-285v-350q82 -12 138.5 -76t56.5 -148t-56.5 -147.5t-140.5 -73.5v-330h287v-262h-625zM143 823.5q0 -63.5 41 -111.5t103 -61v97l30 67l31 -67v-97q61 10 104.5 59.5 t43.5 113t-42 112.5t-104 61v-96l-33 -70l-28 70v96q-61 -12 -103.5 -61t-42.5 -112.5zM186 895q10 33 37 31q14 -2 25 -17q6 -10 17 -23l26 -31q14 -17 20 -28q-63 20 -104 27q-33 6 -21 41zM190 784q6 6 17 9q41 6 104 26q-6 -10 -20 -27l-26 -31q-11 -13 -17 -24 q-25 -35 -51 -2q-27 29 -7 49zM324 819q63 -20 104 -26q33 -6 21 -41q-10 -33 -37 -31q-14 2 -25 16q-6 10 -17 24l-26 31q-14 17 -20 27zM324 827q6 10 20 28l26 31q11 13 17 23q25 35 51 2q27 -29 6 -49q-6 -6 -16 -8q-41 -7 -104 -27z" />
<glyph unicode="&#xad;" horiz-adv-x="518" d="M12 676v280h494v-280h-494z" />
<glyph unicode="&#xae;" horiz-adv-x="913" d="M27 922v309q0 414 430 414t430 -414v-309q0 -451 -426 -451q-434 0 -434 451zM137 958q0 -195 79 -285.5t241 -90.5q178 0 247.5 87t69.5 289v281q0 289 -317 289q-319 0 -320 -289v-281zM231 731v621h240q131 0 178 -51.5t47 -139.5q0 -158 -104 -178l104 -252h-161 l-84 221h-52v-221h-168zM399 1059h74q57 0 57 80q0 49 -14 65.5t-57 16.5h-60v-162z" />
<glyph unicode="&#xaf;" horiz-adv-x="716" d="M98 1219v180h520v-180h-520z" />
<glyph unicode="&#xb0;" horiz-adv-x="483" d="M18 1321q0 96 66 164.5t156 68.5q94 0 159.5 -68.5t65.5 -164.5t-65.5 -163.5t-159.5 -67.5q-90 0 -156 68.5t-66 162.5zM156 1321q0 -35 24.5 -59.5t59.5 -24.5q37 0 61.5 24.5t24.5 59.5q0 37 -25 61.5t-61 24.5q-35 0 -59.5 -24.5t-24.5 -61.5z" />
<glyph unicode="&#xb1;" horiz-adv-x="602" d="M10 817v182h187v156h209v-156h186v-182h-186v-147h-209v147h-187zM12 451v178h578v-178h-578z" />
<glyph unicode="&#xb2;" horiz-adv-x="569" d="M57 795v127q4 57 73 141t133.5 172t64.5 160v51q0 72 -49 72q-43 0 -43 -66v-111h-179v113q0 82 61.5 135t174.5 53q211 0 221 -176q4 -35 -2 -92q-4 -90 -107.5 -232.5t-121.5 -205.5h223v-141h-449z" />
<glyph unicode="&#xb3;" horiz-adv-x="579" d="M59 1055h181v-107q0 -47 49 -47q29 0 38 14.5t9 47.5v96q0 43 -18.5 59.5t-77.5 18.5l-74 2v141l82 2q49 8 65.5 24.5t16.5 65.5v92q0 45 -41 45t-41 -47v-90h-174q4 80 4 115q4 68 60.5 113t154.5 45q109 0 163 -47.5t54 -122.5v-72q0 -166 -184 -180q190 -2 200 -138 q4 -59 -2 -122q-12 -180 -235 -181q-98 0 -162 41t-66 119z" />
<glyph unicode="&#xb4;" horiz-adv-x="716" d="M207 1196l125 293h276l-162 -293h-239z" />
<glyph unicode="&#xb5;" horiz-adv-x="671" d="M37 66v1060h256v-870q0 -66 37 -66q27 0 37 24t10 81v831h256v-1001q0 -106 4 -125h-246l-6 47q-18 -33 -66 -37q-25 -6 -38 2v-340h-244v394z" />
<glyph unicode="&#x3bc;" horiz-adv-x="671" d="M37 66v1060h256v-870q0 -66 37 -66q27 0 37 24t10 81v831h256v-1001q0 -106 4 -125h-246l-6 47q-18 -33 -66 -37q-25 -6 -38 2v-340h-244v394z" />
<glyph unicode="&#xb6;" horiz-adv-x="702" d="M20 1040q0 293 15 416q10 82 67.5 135.5t139.5 53.5q145 0 186 -93l16 84h224v-1841h-99v1641h-41v-1641h-102v723q-57 -82 -176 -82q-86 0 -145.5 50.5t-67.5 136.5q-17 153 -17 417zM322 1038q0 -166 4 -321q0 -63 47 -64q51 0 53 82q2 37 2 322v280q0 88 -53 88 q-27 0 -37 -18t-12 -68q-4 -88 -4 -301z" />
<glyph unicode="&#xb7;" horiz-adv-x="376" d="M45 631v360h285v-360h-285z" />
<glyph unicode="&#xb8;" horiz-adv-x="716" d="M231 -244q160 -4 160 76q0 74 -102 74v94h143v-45q55 0 104.5 -41t49.5 -117q0 -217 -355 -180v139z" />
<glyph unicode="&#xb9;" horiz-adv-x="526" d="M66 1413v123q66 0 106.5 20.5t50.5 37t21 44.5h135v-843h-180v618h-133z" />
<glyph unicode="&#xba;" horiz-adv-x="661" d="M23 264v234h622v-234h-622zM23 1098q0 158 16 305q16 98 86 165.5t203 67.5q137 0 208.5 -68.5t79.5 -176.5q10 -276 11 -293q0 -213 -11 -310q-12 -109 -85.5 -177t-206.5 -68q-141 0 -212 69.5t-79 175.5q-10 158 -10 310zM276 1092q0 -47 1.5 -144.5t1.5 -122.5 q0 -70 47 -69q49 0 49 71v265v254q-2 72 -49 71.5t-47 -71.5q-3 -45 -3 -254z" />
<glyph unicode="&#xbb;" horiz-adv-x="708" d="M31 254v291l123 174l-123 176v289l321 -365v-201zM371 254v291l123 174l-123 176v289l321 -365v-201z" />
<glyph unicode="&#xbc;" horiz-adv-x="1017" d="M6 1413v123q66 0 107 20.5t52 37t21 44.5h136v-843h-181v618h-135zM233 0l197 866l172 772h76l-191 -841l-176 -797h-78zM479 199v137l234 504h200v-510h74v-131h-74v-199h-178v199h-256zM641 330h94v239z" />
<glyph unicode="&#xbd;" horiz-adv-x="1017" d="M6 1413v123q66 0 107 20.5t52 37t21 44.5h136v-843h-181v618h-135zM203 0l196 866l172 772h76l-192 -841l-174 -797h-78zM518 0v127q6 57 74 141l132 172q65 88 64 160v51q0 72 -49 72q-41 0 -41 -66v-110h-178v112q0 82 61.5 135.5t174.5 53.5q209 0 219 -176 q4 -35 -2 -92q-4 -90 -107.5 -233.5t-122.5 -207.5h224v-139h-449z" />
<glyph unicode="&#xbe;" horiz-adv-x="1122" d="M23 1055h180v-107q0 -47 49 -47q29 0 38 14.5t9 47.5v96q0 43 -18.5 59.5t-77.5 18.5l-74 2v141l82 2q49 8 65.5 24.5t16.5 65.5v92q0 45 -41 45t-41 -47v-90h-174q4 80 4 115q4 68 60.5 113t154.5 45q109 0 163 -47.5t54 -122.5v-72q0 -166 -184 -180q190 -2 200 -138 q4 -59 -2 -122q-12 -180 -235 -181q-98 0 -161.5 41t-65.5 119zM344 0l197 866l172 772h75l-190 -841l-176 -797h-78zM584 199v137l233 504h201v-510h74v-131h-74v-199h-178v199h-256zM745 330h95v239z" />
<glyph unicode="&#xbf;" horiz-adv-x="659" d="M31 236q-4 70 0 202q2 78 41 167t83 160t78.5 188.5t28.5 248.5h215q8 -158 -17.5 -282.5t-62.5 -190t-68.5 -147.5t-31.5 -162v-127q0 -86 47 -86q51 0 51 80v162h242v-213q0 -113 -86 -180.5t-219 -67.5q-137 0 -215 63.5t-86 184.5zM233 1286v352h265v-352h-265z" />
<glyph unicode="&#xc0;" d="M0 0l178 1638h414l151 -1638h-284q-18 287 -23 412h-129l-26 -412h-281zM123 1985h278l127 -293h-243zM317 627h109q0 4 -16.5 239.5t-16.5 241.5l-18 338q-12 -225 -17 -338q0 -6 -20.5 -241.5t-20.5 -239.5z" />
<glyph unicode="&#xc1;" d="M0 0l178 1638h414l151 -1638h-284q-18 287 -23 412h-129l-26 -412h-281zM233 1692l125 293h277l-162 -293h-240zM317 627h109q0 4 -16.5 239.5t-16.5 241.5l-18 338q-12 -225 -17 -338q0 -6 -20.5 -241.5t-20.5 -239.5z" />
<glyph unicode="&#xc2;" d="M0 0l178 1638h414l151 -1638h-284q-18 287 -23 412h-129l-26 -412h-281zM100 1692l138 295h268l137 -295h-215l-59 131l-60 -131h-209zM317 627h109q0 4 -16.5 239.5t-16.5 241.5l-18 338q-12 -225 -17 -338q0 -6 -20.5 -241.5t-20.5 -239.5z" />
<glyph unicode="&#xc3;" d="M0 0l178 1638h414l151 -1638h-284q-18 287 -23 412h-129l-26 -412h-281zM72 1704q4 125 52 196.5t126 71.5q82 0 135 -63q29 -37 59 -37q41 0 48 94l163 -6q-4 -133 -52 -202.5t-124 -69.5q-72 0 -112 45q-51 51 -80 51q-39 0 -45 -86zM317 627h109q0 4 -16.5 239.5 t-16.5 241.5l-18 338q-12 -225 -17 -338q0 -6 -20.5 -241.5t-20.5 -239.5z" />
<glyph unicode="&#xc4;" d="M0 0l178 1638h414l151 -1638h-284q-18 287 -23 412h-129l-26 -412h-281zM127 1692v247h201v-247h-201zM317 627h109q0 4 -16.5 239.5t-16.5 241.5l-18 338q-12 -225 -17 -338q0 -6 -20.5 -241.5t-20.5 -239.5zM426 1692v247h203v-247h-203z" />
<glyph unicode="&#xc5;" d="M0 0l178 1638h41q-41 61 -41 134q0 92 59.5 154.5t147.5 62.5t148.5 -62.5t60.5 -154.5q0 -74 -43 -134h41l151 -1638h-284q-18 287 -23 412h-129l-26 -412h-281zM315 1771.5q0 -30.5 20.5 -53t49.5 -22.5t50.5 22.5t21.5 53t-21.5 54t-50.5 23.5t-49.5 -23.5t-20.5 -54z M317 627h109q0 4 -16.5 239.5t-16.5 241.5l-18 338q-12 -225 -17 -338q0 -6 -20.5 -241.5t-20.5 -239.5z" />
<glyph unicode="&#xc6;" horiz-adv-x="935" d="M6 0l178 1638h748v-270h-246v-416h215v-254h-215v-432h246v-266h-526v381h-89l-30 -381h-281zM326 625h77v757q-18 -186 -20 -211z" />
<glyph unicode="&#xc7;" d="M29 827q0 285 8 506q23 315 364 316q305 0 318 -344q2 -57 2 -263h-272v261q-2 72 -56 71q-66 0 -65 -82q-2 -74 -2 -458q0 -403 4 -482q2 -55 17 -77.5t44 -22.5q59 0 60 106v230h272v-285q0 -127 -70.5 -212t-201.5 -103v-33q55 0 104 -41t49 -117q0 -217 -354 -180 v139q160 -4 160 76q0 74 -103 74v84q-227 31 -262 260q-16 131 -16 577z" />
<glyph unicode="&#xc8;" horiz-adv-x="632" d="M41 0v1638h584v-274h-299v-410h272v-256h-272v-430h301v-268h-586zM80 1985h278l127 -293h-243z" />
<glyph unicode="&#xc9;" horiz-adv-x="632" d="M41 0v1638h584v-274h-299v-410h272v-256h-272v-430h301v-268h-586zM172 1692l125 293h276l-161 -293h-240z" />
<glyph unicode="&#xca;" horiz-adv-x="632" d="M41 0v1638h584v-274h-299v-410h272v-256h-272v-430h301v-268h-586zM55 1692l138 295h268l137 -295h-215l-59 131l-60 -131h-209z" />
<glyph unicode="&#xcb;" horiz-adv-x="632" d="M41 0v1638h584v-274h-299v-410h272v-256h-272v-430h301v-268h-586zM74 1692v247h200v-247h-200zM373 1692v247h202v-247h-202z" />
<glyph unicode="&#xcc;" horiz-adv-x="376" d="M-78 1985h279l127 -293h-244zM41 0v1638h297v-1638h-297z" />
<glyph unicode="&#xcd;" horiz-adv-x="376" d="M41 0v1638h297v-1638h-297zM43 1692l125 293h276l-161 -293h-240z" />
<glyph unicode="&#xce;" horiz-adv-x="376" d="M-84 1692l137 295h269l137 -295h-215l-60 131l-59 -131h-209zM41 0v1638h297v-1638h-297z" />
<glyph unicode="&#xcf;" horiz-adv-x="376" d="M-63 1692v247h200v-247h-200zM41 0v1638h297v-1638h-297zM236 1692v247h202v-247h-202z" />
<glyph unicode="&#xd0;" horiz-adv-x="751" d="M12 676v280h35v682h332q223 0 287 -141q61 -102 61 -641q0 -303 -11 -473t-50 -240q-72 -143 -246 -143h-373v676h-35zM334 217h63q53 0 56 78q4 139 4 563q0 281 -6 440q-2 98 -68 99h-49v-441h53v-280h-53v-459z" />
<glyph unicode="&#xd1;" horiz-adv-x="753" d="M41 0v1638h250l160 -723v723h262v-1638h-256l-154 735v-735h-262zM78 1704q4 125 52 196.5t126 71.5q82 0 135 -63q29 -37 60 -37q41 0 47 94l164 -6q-4 -133 -52.5 -202.5t-124.5 -69.5q-72 0 -112 45q-51 51 -80 51q-39 0 -45 -86z" />
<glyph unicode="&#xd2;" horiz-adv-x="759" d="M29 823q0 418 4 484q10 342 346 342q326 0 348 -324q4 -63 4 -491q0 -416 -4 -512q-8 -168 -92 -254t-256 -86q-334 0 -346 321q-4 114 -4 520zM129 1985h279l127 -293h-244zM319 815q0 -422 3 -489q4 -45 16 -66.5t45 -21.5q53 0 59 88q4 127 4 493q0 406 -2 467 q-2 59 -15 83t-46 24q-35 0 -46 -23.5t-15 -85.5q-3 -61 -3 -469z" />
<glyph unicode="&#xd3;" horiz-adv-x="759" d="M29 823q0 418 4 484q10 342 346 342q326 0 348 -324q4 -63 4 -491q0 -416 -4 -512q-8 -168 -92 -254t-256 -86q-334 0 -346 321q-4 114 -4 520zM240 1692l125 293h276l-162 -293h-239zM319 815q0 -422 3 -489q4 -45 16 -66.5t45 -21.5q53 0 59 88q4 127 4 493 q0 406 -2 467q-2 59 -15 83t-46 24q-35 0 -46 -23.5t-15 -85.5q-3 -61 -3 -469z" />
<glyph unicode="&#xd4;" horiz-adv-x="759" d="M29 823q0 418 4 484q10 342 346 342q326 0 348 -324q4 -63 4 -491q0 -416 -4 -512q-8 -168 -92 -254t-256 -86q-334 0 -346 321q-4 114 -4 520zM109 1692l137 295h268l137 -295h-215l-59 131l-60 -131h-208zM319 815q0 -422 3 -489q4 -45 16 -66.5t45 -21.5q53 0 59 88 q4 127 4 493q0 406 -2 467q-2 59 -15 83t-46 24q-35 0 -46 -23.5t-15 -85.5q-3 -61 -3 -469z" />
<glyph unicode="&#xd5;" horiz-adv-x="759" d="M29 823q0 418 4 484q10 342 346 342q326 0 348 -324q4 -63 4 -491q0 -416 -4 -512q-8 -168 -92 -254t-256 -86q-334 0 -346 321q-4 114 -4 520zM80 1704q4 125 52 196.5t126 71.5q82 0 135 -63q29 -37 60 -37q41 0 47 94l164 -6q-4 -133 -52.5 -202.5t-124.5 -69.5 q-72 0 -112 45q-51 51 -80 51q-39 0 -45 -86zM319 815q0 -422 3 -489q4 -45 16 -66.5t45 -21.5q53 0 59 88q4 127 4 493q0 406 -2 467q-2 59 -15 83t-46 24q-35 0 -46 -23.5t-15 -85.5q-3 -61 -3 -469z" />
<glyph unicode="&#xd6;" horiz-adv-x="759" d="M29 823q0 418 4 484q10 342 346 342q326 0 348 -324q4 -63 4 -491q0 -416 -4 -512q-8 -168 -92 -254t-256 -86q-334 0 -346 321q-4 114 -4 520zM129 1692v247h201v-247h-201zM319 815q0 -422 3 -489q4 -45 16 -66.5t45 -21.5q53 0 59 88q4 127 4 493q0 406 -2 467 q-2 59 -15 83t-46 24q-35 0 -46 -23.5t-15 -85.5q-3 -61 -3 -469zM428 1692v247h203v-247h-203z" />
<glyph unicode="&#xd7;" horiz-adv-x="546" d="M25 647l118 119l-118 117l133 141l116 -119l119 119l131 -141l-118 -117l118 -119l-131 -139l-119 119l-116 -119z" />
<glyph unicode="&#xd8;" horiz-adv-x="759" d="M29 823q0 418 4 484q10 342 346 342q90 0 158 -25l10 39h74q-18 -70 -19 -72q113 -78 125 -266q4 -63 4 -491q0 -416 -4 -512q-8 -168 -92 -254t-256 -86q-84 0 -146 18l-24 -86h-74l31 115q-127 78 -133 274q-4 114 -4 520zM305 530q0 -8 1 -22t3 -23l123 818 q-10 76 -26 96q-20 20 -35 18t-20 -9t-19 -36q-16 -27 -23 -325q-8 -347 -4 -517zM332 313q14 -76 30 -98q31 -12 43.5 -4t28.5 41q18 33 25 317q2 43 3 231.5t1 239.5q0 57 -6 95q-123 -822 -125 -822z" />
<glyph unicode="&#xd9;" horiz-adv-x="751" d="M33 322v1316h282v-1314q0 -51 13.5 -69.5t46.5 -18.5q31 0 43 18t12 68v1316h285v-1316q0 -162 -87 -249t-245 -87q-162 0 -256 84t-94 252zM139 1985h279l127 -293h-244z" />
<glyph unicode="&#xda;" horiz-adv-x="751" d="M33 322v1316h282v-1314q0 -51 13.5 -69.5t46.5 -18.5q31 0 43 18t12 68v1316h285v-1316q0 -162 -87 -249t-245 -87q-162 0 -256 84t-94 252zM223 1692l125 293h277l-162 -293h-240z" />
<glyph unicode="&#xdb;" horiz-adv-x="751" d="M33 322v1316h282v-1314q0 -51 13.5 -69.5t46.5 -18.5q31 0 43 18t12 68v1316h285v-1316q0 -162 -87 -249t-245 -87q-162 0 -256 84t-94 252zM104 1692l138 295h268l137 -295h-215l-59 131l-60 -131h-209z" />
<glyph unicode="&#xdc;" horiz-adv-x="751" d="M33 322v1316h282v-1314q0 -51 13.5 -69.5t46.5 -18.5q31 0 43 18t12 68v1316h285v-1316q0 -162 -87 -249t-245 -87q-162 0 -256 84t-94 252zM125 1692v247h201v-247h-201zM424 1692v247h203v-247h-203z" />
<glyph unicode="&#xdd;" horiz-adv-x="811" d="M0 1638h285q104 -565 110 -663q4 100 125 663h291l-270 -1007v-631h-289v623zM254 1692l125 293h276l-161 -293h-240z" />
<glyph unicode="&#xde;" horiz-adv-x="753" d="M37 0v1638h301v-303h78q213 0 266 -190q55 -104 55 -311q0 -217 -63 -320q-57 -174 -254 -180l-88 -2v-332h-295zM332 573h28q82 0 82 154v90v76q0 100 -18 136t-59 36h-33v-492z" />
<glyph unicode="&#xdf;" horiz-adv-x="1032" d="M6 899v227h78v226q0 135 96 214t258 79q137 0 226.5 -78t89.5 -207q0 -94 -63.5 -222t-63.5 -206q0 -35 5 -62.5t16 -50t18.5 -35t25 -33t21.5 -24.5q66 -51 127 -88q92 -61 132 -141t40 -203q0 -311 -307 -311q-150 0 -226 54t-82 169q-6 129 -6 164h264q0 -4 1 -61.5 t1 -88.5q0 -66 43 -65q47 0 48 108q0 84 -13.5 132t-56.5 79q-61 37 -117 84q-90 57 -135 134t-45 222q0 106 54 225.5t54 174.5q0 61 -14 89t-53 28q-76 0 -76 -111v-1321h-262v899h-78z" />
<glyph unicode="&#xe0;" horiz-adv-x="651" d="M14 184q0 174 2 209q8 115 64.5 181.5t191.5 103.5q74 18 101 22v156q0 66 -41 66q-45 0 -45 -68v-123h-240q-4 111 8 203q10 90 84 149.5t201 59.5q283 0 283 -250q0 -55 -1 -196.5t-1 -194.5q-2 -94 -3 -314q0 -176 13 -188h-252q-4 61 -4 72q-55 -80 -166 -80 q-72 0 -130.5 41.5t-64.5 150.5zM90 1489h279l127 -293h-244zM272 362q0 -86 2 -108q4 -55 48 -55q51 0 51 75v166q0 10 -1 42t-1 40q-2 -2 -12.5 -4t-16.5 -6q-33 -18 -47 -39q-23 -29 -23 -111z" />
<glyph unicode="&#xe1;" horiz-adv-x="651" d="M14 184q0 174 2 209q8 115 64.5 181.5t191.5 103.5q74 18 101 22v156q0 66 -41 66q-45 0 -45 -68v-123h-240q-4 111 8 203q10 90 84 149.5t201 59.5q283 0 283 -250q0 -55 -1 -196.5t-1 -194.5q-2 -94 -3 -314q0 -176 13 -188h-252q-4 61 -4 72q-55 -80 -166 -80 q-72 0 -130.5 41.5t-64.5 150.5zM180 1196l125 293h277l-162 -293h-240zM272 362q0 -86 2 -108q4 -55 48 -55q51 0 51 75v166q0 10 -1 42t-1 40q-2 -2 -12.5 -4t-16.5 -6q-33 -18 -47 -39q-23 -29 -23 -111z" />
<glyph unicode="&#xe2;" horiz-adv-x="651" d="M14 184q0 174 2 209q8 115 64.5 181.5t191.5 103.5q74 18 101 22v156q0 66 -41 66q-45 0 -45 -68v-123h-240q-4 111 8 203q10 90 84 149.5t201 59.5q283 0 283 -250q0 -55 -1 -196.5t-1 -194.5q-2 -94 -3 -314q0 -176 13 -188h-252q-4 61 -4 72q-55 -80 -166 -80 q-72 0 -130.5 41.5t-64.5 150.5zM76 1196l137 295h268l137 -295h-215l-59 131l-59 -131h-209zM272 362q0 -86 2 -108q4 -55 48 -55q51 0 51 75v166q0 10 -1 42t-1 40q-2 -2 -12.5 -4t-16.5 -6q-33 -18 -47 -39q-23 -29 -23 -111z" />
<glyph unicode="&#xe3;" horiz-adv-x="651" d="M14 184q0 174 2 209q8 115 64.5 181.5t191.5 103.5q74 18 101 22v156q0 66 -41 66q-45 0 -45 -68v-123h-240q-4 111 8 203q10 90 84 149.5t201 59.5q283 0 283 -250q0 -55 -1 -196.5t-1 -194.5q-2 -94 -3 -314q0 -176 13 -188h-252q-4 61 -4 72q-55 -80 -166 -80 q-72 0 -130.5 41.5t-64.5 150.5zM27 1208q4 125 52 197t126 72q82 0 135 -64q29 -37 59 -37q41 0 47 94l164 -6q-4 -133 -52 -202.5t-124 -69.5q-72 0 -112 45q-51 51 -80 51q-39 0 -45 -86zM272 362q0 -86 2 -108q4 -55 48 -55q51 0 51 75v166q0 10 -1 42t-1 40 q-2 -2 -12.5 -4t-16.5 -6q-33 -18 -47 -39q-23 -29 -23 -111z" />
<glyph unicode="&#xe4;" horiz-adv-x="651" d="M14 184q0 174 2 209q8 115 64.5 181.5t191.5 103.5q74 18 101 22v156q0 66 -41 66q-45 0 -45 -68v-123h-240q-4 111 8 203q10 90 84 149.5t201 59.5q283 0 283 -250q0 -55 -1 -196.5t-1 -194.5q-2 -94 -3 -314q0 -176 13 -188h-252q-4 61 -4 72q-55 -80 -166 -80 q-72 0 -130.5 41.5t-64.5 150.5zM76 1196v248h200v-248h-200zM272 362q0 -86 2 -108q4 -55 48 -55q51 0 51 75v166q0 10 -1 42t-1 40q-2 -2 -12.5 -4t-16.5 -6q-33 -18 -47 -39q-23 -29 -23 -111zM375 1196v248h203v-248h-203z" />
<glyph unicode="&#xe5;" horiz-adv-x="651" d="M14 184q0 174 2 209q8 115 64.5 181.5t191.5 103.5q74 18 101 22v156q0 66 -41 66q-45 0 -45 -68v-123h-240q-4 111 8 203q10 90 84 149.5t201 59.5q283 0 283 -250q0 -55 -1 -196.5t-1 -194.5q-2 -94 -3 -314q0 -176 13 -188h-252q-4 61 -4 72q-55 -80 -166 -80 q-72 0 -130.5 41.5t-64.5 150.5zM154 1366q0 84 54 140.5t134 56.5t135 -57.5t55 -139.5q0 -84 -55 -141.5t-135 -57.5t-134 57.5t-54 141.5zM272 362q0 -86 2 -108q4 -55 48 -55q51 0 51 75v166q0 10 -1 42t-1 40q-2 -2 -12.5 -4t-16.5 -6q-33 -18 -47 -39 q-23 -29 -23 -111zM279 1366q0 -29 18 -49.5t45 -20.5t46.5 20.5t19.5 49.5t-19.5 49.5t-46.5 20.5t-45 -20.5t-18 -49.5z" />
<glyph unicode="&#xe6;" horiz-adv-x="976" d="M14 184q0 174 2 209q8 106 76 178t180 107q53 16 101 22v150q0 66 -41 65q-45 0 -45 -67v-117h-240q-4 111 8 203q10 90 84 149.5t201 59.5q119 0 180 -58q45 53 152 54q109 0 174 -54.5t82 -119.5q29 -76 28 -490h-335v-215q0 -66 49 -65.5t49 65.5v107h237 q0 -129 -34 -211q-43 -170 -252 -170q-170 0 -240 114q-20 -45 -77.5 -76.5t-129.5 -31.5q-197 -1 -209 192zM272 371q0 -90 2 -115q4 -57 48 -57q51 0 51 80v174q0 10 -1 43.5t-1 42.5q-2 -2 -12.5 -4.5t-16.5 -6.5q-35 -20 -47 -41q-23 -28 -23 -116zM616 664h101 q0 12 -1 104t-1 102q0 55 -49 56q-43 0 -48 -56q0 -6 -1 -102t-1 -104z" />
<glyph unicode="&#xe7;" horiz-adv-x="624" d="M25 563q0 197 28 375q14 92 85 146.5t184 54.5q219 0 268 -185q14 -53 14 -288h-239v155q-2 31 -2.5 42t-4.5 27.5t-12 22t-22 5.5q-25 0 -35 -19.5t-10 -67.5v-270v-272q0 -47 9 -65.5t36 -18.5q25 0 33 18.5t8 67.5q0 8 1 78.5t1 87.5h237q0 -229 -20 -295 q-45 -147 -195 -170v-31q55 0 104.5 -41t49.5 -117q0 -217 -355 -180v139q160 -4 160 76q0 74 -102 74v82q-152 25 -191 168q-30 118 -30 401z" />
<glyph unicode="&#xe8;" horiz-adv-x="634" d="M25 555q0 74 11 220.5t27 189.5q20 51 43 82.5t80.5 61.5t141.5 30q109 0 173 -53.5t83 -120.5q29 -82 28 -494h-336v-211q0 -66 49.5 -65.5t49.5 65.5v107h231q0 -139 -24 -211q-59 -170 -256 -170q-203 0 -252 139q-49 145 -49 430zM61 1489h279l127 -293h-244z M272 668h99q0 12 -1 100t-1 100q0 55 -47 56q-43 0 -48 -56q0 -6 -1 -96t-1 -104z" />
<glyph unicode="&#xe9;" horiz-adv-x="634" d="M25 555q0 74 11 220.5t27 189.5q20 51 43 82.5t80.5 61.5t141.5 30q109 0 173 -53.5t83 -120.5q29 -82 28 -494h-336v-211q0 -66 49.5 -65.5t49.5 65.5v107h231q0 -139 -24 -211q-59 -170 -256 -170q-203 0 -252 139q-49 145 -49 430zM168 1196l125 293h276l-161 -293 h-240zM272 668h99q0 12 -1 100t-1 100q0 55 -47 56q-43 0 -48 -56q0 -6 -1 -96t-1 -104z" />
<glyph unicode="&#xea;" horiz-adv-x="634" d="M25 555q0 74 11 220.5t27 189.5q20 51 43 82.5t80.5 61.5t141.5 30q109 0 173 -53.5t83 -120.5q29 -82 28 -494h-336v-211q0 -66 49.5 -65.5t49.5 65.5v107h231q0 -139 -24 -211q-59 -170 -256 -170q-203 0 -252 139q-49 145 -49 430zM45 1196l137 295h269l137 -295h-215 l-60 131l-59 -131h-209zM272 668h99q0 12 -1 100t-1 100q0 55 -47 56q-43 0 -48 -56q0 -6 -1 -96t-1 -104z" />
<glyph unicode="&#xeb;" horiz-adv-x="634" d="M25 555q0 74 11 220.5t27 189.5q20 51 43 82.5t80.5 61.5t141.5 30q109 0 173 -53.5t83 -120.5q29 -82 28 -494h-336v-211q0 -66 49.5 -65.5t49.5 65.5v107h231q0 -139 -24 -211q-59 -170 -256 -170q-203 0 -252 139q-49 145 -49 430zM66 1196v248h200v-248h-200z M272 668h99q0 12 -1 100t-1 100q0 55 -47 56q-43 0 -48 -56q0 -6 -1 -96t-1 -104zM365 1196v248h202v-248h-202z" />
<glyph unicode="&#xec;" horiz-adv-x="339" d="M-111 1489h279l127 -293h-244zM37 68v1058h266v-1054l12 -72h-262q-16 5 -16 68z" />
<glyph unicode="&#xed;" horiz-adv-x="339" d="M37 68v1058h266v-1054l12 -72h-262q-16 5 -16 68zM39 1196l125 293h276l-161 -293h-240z" />
<glyph unicode="&#xee;" horiz-adv-x="339" d="M-102 1196l137 295h268l137 -295h-215l-59 131l-60 -131h-208zM37 68v1058h266v-1054l12 -72h-262q-16 5 -16 68z" />
<glyph unicode="&#xef;" horiz-adv-x="339" d="M-82 1196v248h201v-248h-201zM37 68v1058h266v-1054l12 -72h-262q-16 5 -16 68zM217 1196v248h203v-248h-203z" />
<glyph unicode="&#xf0;" horiz-adv-x="688" d="M27 519q-2 247 20 345q18 66 77.5 108t137.5 42q43 0 68.5 -11.5t66.5 -46.5v142q-16 -4 -43 -4q-113 0 -161 135l94 47q23 -66 63 -66q23 0 47 11v106q0 66 -13 94.5t-46 28.5q-31 0 -43 -14.5t-12 -55.5v-51h-248q0 74 4 111q10 86 85 149.5t206 63.5q141 0 218 -77 t89 -206q4 -25 8 -78q16 6 43 6q106 0 154 -120l-84 -62q-20 68 -66 68q-16 0 -37 -13q6 -270 7 -280q0 -551 -46 -701q-35 -104 -98 -154t-182 -50q-127 0 -190.5 50t-92.5 148q-24 88 -26 335zM293 287q2 -49 12 -67.5t37 -18.5q31 0 41 15t12 65q0 16 4 201.5t4 230.5 q-14 88 -55 88q-55 0 -55 -64v-450z" />
<glyph unicode="&#xf1;" horiz-adv-x="661" d="M27 1208q4 125 52 197t126 72q82 0 135 -64q29 -37 59 -37q41 0 47 94l164 -6q-4 -133 -52 -202.5t-124 -69.5q-72 0 -112 45q-51 51 -80 51q-39 0 -45 -86zM35 0v1126h250v-96q12 51 56 80t108 29q180 0 180 -217q0 -922 6 -922h-256q-6 2 -6 854q0 57 -33 57 q-49 0 -49 -102v-809h-256z" />
<glyph unicode="&#xf2;" horiz-adv-x="653" d="M23 565q0 193 16 340q16 98 86 166t203 68q137 0 208.5 -67.5t79.5 -176.5q10 -287 11 -330q0 -233 -11 -329q-12 -109 -85.5 -178.5t-206.5 -69.5q-141 0 -212 70.5t-79 177.5q-10 153 -10 329zM61 1489h279l127 -293h-244zM276 561q0 -49 1.5 -157.5t1.5 -131.5 q0 -70 47 -69q49 0 49 71v287v287q-2 41 -12.5 56.5t-36.5 15.5q-47 0 -47 -72q-3 -45 -3 -287z" />
<glyph unicode="&#xf3;" horiz-adv-x="653" d="M23 565q0 193 16 340q16 98 86 166t203 68q137 0 208.5 -67.5t79.5 -176.5q10 -287 11 -330q0 -233 -11 -329q-12 -109 -85.5 -178.5t-206.5 -69.5q-141 0 -212 70.5t-79 177.5q-10 153 -10 329zM178 1196l125 293h277l-162 -293h-240zM276 561q0 -49 1.5 -157.5 t1.5 -131.5q0 -70 47 -69q49 0 49 71v287v287q-2 41 -12.5 56.5t-36.5 15.5q-47 0 -47 -72q-3 -45 -3 -287z" />
<glyph unicode="&#xf4;" horiz-adv-x="653" d="M23 565q0 193 16 340q16 98 86 166t203 68q137 0 208.5 -67.5t79.5 -176.5q10 -287 11 -330q0 -233 -11 -329q-12 -109 -85.5 -178.5t-206.5 -69.5q-141 0 -212 70.5t-79 177.5q-10 153 -10 329zM55 1196l138 295h268l137 -295h-215l-59 131l-60 -131h-209zM276 561 q0 -49 1.5 -157.5t1.5 -131.5q0 -70 47 -69q49 0 49 71v287v287q-2 41 -12.5 56.5t-36.5 15.5q-47 0 -47 -72q-3 -45 -3 -287z" />
<glyph unicode="&#xf5;" horiz-adv-x="653" d="M23 565q0 193 16 340q16 98 86 166t203 68q137 0 208.5 -67.5t79.5 -176.5q10 -287 11 -330q0 -233 -11 -329q-12 -109 -85.5 -178.5t-206.5 -69.5q-141 0 -212 70.5t-79 177.5q-10 153 -10 329zM27 1208q4 125 52 197t126 72q82 0 135 -64q29 -37 59 -37q41 0 47 94 l164 -6q-4 -133 -52 -202.5t-124 -69.5q-72 0 -112 45q-51 51 -80 51q-39 0 -45 -86zM276 561q0 -49 1.5 -157.5t1.5 -131.5q0 -70 47 -69q49 0 49 71v287v287q-2 41 -12.5 56.5t-36.5 15.5q-47 0 -47 -72q-3 -45 -3 -287z" />
<glyph unicode="&#xf6;" horiz-adv-x="653" d="M23 565q0 193 16 340q16 98 86 166t203 68q137 0 208.5 -67.5t79.5 -176.5q10 -287 11 -330q0 -233 -11 -329q-12 -109 -85.5 -178.5t-206.5 -69.5q-141 0 -212 70.5t-79 177.5q-10 153 -10 329zM76 1196v248h200v-248h-200zM276 561q0 -49 1.5 -157.5t1.5 -131.5 q0 -70 47 -69q49 0 49 71v287v287q-2 41 -12.5 56.5t-36.5 15.5q-47 0 -47 -72q-3 -45 -3 -287zM375 1196v248h203v-248h-203z" />
<glyph unicode="&#xf7;" horiz-adv-x="602" d="M10 709v211h582v-211h-582zM190 457v180h222v-180h-222zM190 989v182h222v-182h-222z" />
<glyph unicode="&#xf8;" horiz-adv-x="653" d="M23 565q0 193 16 340q16 98 86 166t203 68q47 0 92 -11l12 50h76l-19 -74q117 -61 127 -209q10 -287 11 -330q0 -233 -11 -329q-12 -109 -85.5 -178.5t-206.5 -69.5q-45 0 -93 10l-12 -55h-76l19 80q-119 61 -129 213q-10 153 -10 329zM276 561q0 -49 1.5 -157.5 t1.5 -131.5q0 -70 47 -69q49 0 49 71v287v287q-2 41 -12.5 56.5t-36.5 15.5q-47 0 -47 -72q-3 -45 -3 -287z" />
<glyph unicode="&#xf9;" horiz-adv-x="659" d="M31 264v862h258v-850q0 -66 35 -65q27 0 37 22.5t10 79.5v813h256v-1001q0 -88 4 -125h-244l-8 47q-53 -53 -141 -53q-207 0 -207 270zM98 1489h279l127 -293h-244z" />
<glyph unicode="&#xfa;" horiz-adv-x="659" d="M31 264v862h258v-850q0 -66 35 -65q27 0 37 22.5t10 79.5v813h256v-1001q0 -88 4 -125h-244l-8 47q-53 -53 -141 -53q-207 0 -207 270zM182 1196l125 293h277l-162 -293h-240z" />
<glyph unicode="&#xfb;" horiz-adv-x="659" d="M31 264v862h258v-850q0 -66 35 -65q27 0 37 22.5t10 79.5v813h256v-1001q0 -88 4 -125h-244l-8 47q-53 -53 -141 -53q-207 0 -207 270zM63 1196l138 295h268l137 -295h-215l-59 131l-60 -131h-209z" />
<glyph unicode="&#xfc;" horiz-adv-x="659" d="M31 264v862h258v-850q0 -66 35 -65q27 0 37 22.5t10 79.5v813h256v-1001q0 -88 4 -125h-244l-8 47q-53 -53 -141 -53q-207 0 -207 270zM84 1196v248h201v-248h-201zM383 1196v248h203v-248h-203z" />
<glyph unicode="&#xfd;" horiz-adv-x="684" d="M0 1126h268q70 -627 76 -700q18 119 74 700h266l-291 -1454h-264l76 367zM190 1196l125 293h277l-162 -293h-240z" />
<glyph unicode="&#xfe;" horiz-adv-x="669" d="M35 -328v1966h248v-579q39 80 153 80q147 0 182 -156q27 -125 27 -401q0 -293 -16 -385q-33 -199 -205 -199q-82 0 -137 39v-365h-252zM287 260q0 -55 49 -55q45 0 45 65q2 51 2 305q0 236 -2 285q0 57 -43 58q-51 0 -51 -74v-269v-315z" />
<glyph unicode="&#xff;" horiz-adv-x="684" d="M0 1126h268q70 -627 76 -700q18 119 74 700h266l-291 -1454h-264l76 367zM92 1196v248h201v-248h-201zM391 1196v248h203v-248h-203z" />
<glyph unicode="&#x152;" horiz-adv-x="1038" d="M29 823q0 418 4 484q10 342 346 342q145 0 205 -62v51h450v-270h-303v-416h273v-254h-273v-432h301v-266h-450l-2 57v-4q-25 -29 -83.5 -50t-117.5 -21q-334 0 -346 321q-4 114 -4 520zM319 815q0 -424 3 -491q4 -45 16 -66.5t45 -21.5q53 0 59 88q4 127 4 495 q0 406 -2 467q-2 59 -15 83t-46 24q-35 0 -46 -23.5t-15 -85.5q-3 -61 -3 -469z" />
<glyph unicode="&#x153;" horiz-adv-x="974" d="M23 565q0 193 16 340q16 98 86 166t203 68q104 0 170 -70q53 70 170 70q109 0 173 -53.5t83 -120.5q29 -82 28 -494h-336v-211q0 -66 49.5 -65.5t49.5 65.5v107h237q0 -129 -34 -211q-43 -170 -238 -170q-141 0 -186 67q-43 -66 -185 -65q-129 0 -198.5 71.5t-77.5 176.5 q-10 153 -10 329zM276 272q0 -70 49.5 -69.5t49.5 71.5v287v287q-2 41 -12.5 56.5t-36.5 15.5q-45 0 -50 -72v-287v-289zM612 668h101q0 12 -1 102t-1 100q0 55 -49 56q-43 0 -48 -56q0 -6 -1 -100t-1 -102z" />
<glyph unicode="&#x178;" horiz-adv-x="811" d="M0 1638h285q104 -565 110 -663q4 100 125 663h291l-270 -1007v-631h-289v623zM156 1692v247h200v-247h-200zM455 1692v247h202v-247h-202z" />
<glyph unicode="&#x2c6;" horiz-adv-x="716" d="M88 1196l137 295h269l137 -295h-215l-60 131l-59 -131h-209z" />
<glyph unicode="&#x2dc;" horiz-adv-x="716" d="M59 1208q4 125 52.5 197t126.5 72q82 0 135 -64q29 -37 59 -37q41 0 47 94l164 -6q-4 -133 -52 -202.5t-124 -69.5q-72 0 -113 45q-51 51 -80 51q-39 0 -45 -86z" />
<glyph unicode="&#x2000;" horiz-adv-x="993" />
<glyph unicode="&#x2001;" horiz-adv-x="1988" />
<glyph unicode="&#x2002;" horiz-adv-x="993" />
<glyph unicode="&#x2003;" horiz-adv-x="1988" />
<glyph unicode="&#x2004;" horiz-adv-x="661" />
<glyph unicode="&#x2005;" horiz-adv-x="495" />
<glyph unicode="&#x2006;" horiz-adv-x="329" />
<glyph unicode="&#x2007;" horiz-adv-x="329" />
<glyph unicode="&#x2008;" horiz-adv-x="247" />
<glyph unicode="&#x2009;" horiz-adv-x="397" />
<glyph unicode="&#x200a;" horiz-adv-x="108" />
<glyph unicode="&#x2010;" horiz-adv-x="518" d="M12 676v280h494v-280h-494z" />
<glyph unicode="&#x2011;" horiz-adv-x="518" d="M12 676v280h494v-280h-494z" />
<glyph unicode="&#x2013;" horiz-adv-x="583" d="M20 621v253h543v-253h-543z" />
<glyph unicode="&#x2014;" horiz-adv-x="921" d="M102 621v253h717v-253h-717z" />
<glyph unicode="&#x2018;" horiz-adv-x="313" d="M29 1098v340l159 209l115 -82l-72 -131v-11h58v-325h-260z" />
<glyph unicode="&#x2019;" horiz-adv-x="313" d="M16 1171l72 132v10h-57v325h260v-340l-160 -208z" />
<glyph unicode="&#x201a;" horiz-adv-x="313" d="M16 -141l72 131v10h-57v326h260v-340l-160 -209z" />
<glyph unicode="&#x201c;" horiz-adv-x="614" d="M31 1098v340l162 209l112 -82l-69 -131v-11h53v-325h-258zM328 1098v340l159 209l113 -82l-70 -131v-11h56v-325h-258z" />
<glyph unicode="&#x201d;" horiz-adv-x="614" d="M18 1171l70 132v10h-55v325h258v-340l-160 -208zM315 1171l70 132v10h-55v325h258v-340l-160 -208z" />
<glyph unicode="&#x201e;" horiz-adv-x="614" d="M18 -141l70 131v10h-55v326h258v-340l-160 -209zM315 -141l70 131v10h-55v326h258v-340l-160 -209z" />
<glyph unicode="&#x2022;" horiz-adv-x="696" d="M72 745q0 121 82 207t196.5 86t195.5 -86t81 -207q0 -119 -82 -205.5t-194.5 -86.5t-195.5 86.5t-83 205.5z" />
<glyph unicode="&#x2026;" horiz-adv-x="1128" d="M45 0v360h285v-360h-285zM422 0v360h285v-360h-285zM797 0v360h284v-360h-284z" />
<glyph unicode="&#x202f;" horiz-adv-x="397" />
<glyph unicode="&#x2039;" horiz-adv-x="362" d="M23 618v201l319 365v-289l-143 -176l143 -174v-291z" />
<glyph unicode="&#x203a;" horiz-adv-x="362" d="M23 254v291l143 174l-143 176v289l319 -365v-201z" />
<glyph unicode="&#x205f;" horiz-adv-x="495" />
<glyph unicode="&#x20ac;" horiz-adv-x="751" d="M12 614v170h66v37v29h-66v170h66q4 252 14 354q18 127 86 203t225 76q143 0 218 -78t92 -201q10 -117 14 -299h-268q-2 102 -2 232q0 96 -56 96q-49 0 -53 -98q0 -14 -1 -116t-1 -169h84v-170h-86v-31v-35h86v-170h-86q4 -252 6 -301q4 -92 53 -92q53 0 54 92q0 8 1 86 t1 138h266q-6 -137 -16 -244q-33 -307 -306 -307q-145 0 -216.5 78.5t-88.5 228.5q-10 84 -18 321h-68z" />
<glyph unicode="&#x2122;" horiz-adv-x="1183" d="M4 1464v174h414v-174h-129q0 -117 2 -194q6 -45 51 -45q33 0 45 2v-154q-39 -8 -113 -8q-76 0 -119.5 40t-43.5 118v241h-107zM451 1069v569h170v-96q23 106 137 107q100 0 121 -105q27 104 145 105q131 0 131 -158v-422h-176v344q0 59 -39 60q-49 0 -49 -89v-315h-174 v346q0 57 -39 58q-53 0 -53 -99v-305h-174z" />
</font>
</defs>
</svg>
